<svg width="44" height="44" viewBox="0 0 44 44" fill="none" xmlns="http://www.w3.org/2000/svg">
<circle cx="22" cy="22" r="21" fill="black"/>
<path d="M29.1172 20.9297V22.0078C29.1172 23.2891 28.957 24.4375 28.6367 25.4531C28.3164 26.4688 27.8555 27.332 27.2539 28.043C26.6523 28.7539 25.9297 29.2969 25.0859 29.6719C24.25 30.0469 23.3125 30.2344 22.2734 30.2344C21.2656 30.2344 20.3398 30.0469 19.4961 29.6719C18.6602 29.2969 17.9336 28.7539 17.3164 28.043C16.707 27.332 16.2344 26.4688 15.8984 25.4531C15.5625 24.4375 15.3945 23.2891 15.3945 22.0078V20.9297C15.3945 19.6484 15.5586 18.5039 15.8867 17.4961C16.2227 16.4805 16.6953 15.6172 17.3047 14.9062C17.9141 14.1875 18.6367 13.6406 19.4727 13.2656C20.3164 12.8906 21.2422 12.7031 22.25 12.7031C23.2891 12.7031 24.2266 12.8906 25.0625 13.2656C25.9062 13.6406 26.6289 14.1875 27.2305 14.9062C27.8398 15.6172 28.3047 16.4805 28.625 17.4961C28.9531 18.5039 29.1172 19.6484 29.1172 20.9297ZM26.8789 22.0078V20.9062C26.8789 19.8906 26.7734 18.9922 26.5625 18.2109C26.3594 17.4297 26.0586 16.7734 25.6602 16.2422C25.2617 15.7109 24.7734 15.3086 24.1953 15.0352C23.625 14.7617 22.9766 14.625 22.25 14.625C21.5469 14.625 20.9102 14.7617 20.3398 15.0352C19.7773 15.3086 19.293 15.7109 18.8867 16.2422C18.4883 16.7734 18.1797 17.4297 17.9609 18.2109C17.7422 18.9922 17.6328 19.8906 17.6328 20.9062V22.0078C17.6328 23.0312 17.7422 23.9375 17.9609 24.7266C18.1797 25.5078 18.4922 26.168 18.8984 26.707C19.3125 27.2383 19.8008 27.6406 20.3633 27.9141C20.9336 28.1875 21.5703 28.3242 22.2734 28.3242C23.0078 28.3242 23.6602 28.1875 24.2305 27.9141C24.8008 27.6406 25.2812 27.2383 25.6719 26.707C26.0703 26.168 26.3711 25.5078 26.5742 24.7266C26.7773 23.9375 26.8789 23.0312 26.8789 22.0078Z" fill="white"/>
</svg>
